<svg xmlns="http://www.w3.org/2000/svg" viewBox="0 0 25.45 26.06">
  <!-- <style>@media (prefers-color-scheme: dark) { #logo { fill: #C6EBDE } }</style> -->
  <g id="logo" fill="#3DAE86">
    <path d="M7.807 22.085a1.837 1.837 0 0 0-.572-.006c-.499.073-1.004-.127-1.357-.48l-1.237-1.236a1.56 1.56 0 0 1-.432-1.37c.02-.113.027-.232.027-.345 0-.12-.013-.233-.027-.346a1.56 1.56 0 0 1 .432-1.37l1.656-1.656a1.636 1.636 0 0 1 1.17-.499c.12 0 .24-.006.366-.033a1.452 1.452 0 1 0-1.742-1.742c-.027.126-.04.246-.033.366.013.438-.186.857-.492 1.17L3.91 16.194c-.36.359-.864.525-1.363.439-.12-.02-.24-.034-.366-.034A2.076 2.076 0 0 0 .14 18.588a2.036 2.036 0 0 0 2.041 2.107c.12 0 .233-.013.346-.026a1.56 1.56 0 0 1 1.37.432l1.236 1.237c.36.36.552.858.48 1.357a1.907 1.907 0 1 0 3.77-.053 1.9 1.9 0 0 0-1.576-1.557Z" />
    <path d="M13.12 21.892a2.102 2.102 0 0 0-.679.014 1.542 1.542 0 0 1-1.37-.432l-1.595-1.596c-.306-.306-.446-.738-.433-1.17a1.463 1.463 0 0 0-.033-.38 1.545 1.545 0 0 0-3.039.559 1.536 1.536 0 0 0 1.21 1.27c.134.026.26.033.38.033.438-.02.864.12 1.17.432l1.596 1.596c.359.36.532.871.432 1.37a2.098 2.098 0 0 0 1.802 2.46 2.097 2.097 0 0 0 .559-4.155Z" />
    <path d="M23.686 16.799a1.856 1.856 0 0 0-1.69.725 1.537 1.537 0 0 1-1.23.598h-.465a1.04 1.04 0 0 1-.838-.445 1.637 1.637 0 0 0-1.31-.665c-.498 0-.95.226-1.243.578a1.425 1.425 0 0 1-1.09.526h-.885a.368.368 0 0 1-.34-.227v-.006a.315.315 0 0 1 .067-.346l1.656-1.656a1.52 1.52 0 0 1 1.383-.432c.233.053.486.06.745.027.97-.133 1.755-.918 1.869-1.889a2.185 2.185 0 0 0-2.44-2.44 2.2 2.2 0 0 0-1.896 1.868c-.033.26-.02.512.027.745.106.499-.074 1.024-.433 1.383l-1.183 1.184c-.34.339-.818.472-1.29.399a1.933 1.933 0 0 0-2.188 1.689 1.926 1.926 0 0 0 1.908 2.14c.639 0 1.197-.305 1.55-.784.292-.399.771-.611 1.27-.611h.166c.432 0 .825.206 1.104.531.053.067.113.127.18.18.352.306.538.765.538 1.23v.479c0 .445-.213.858-.552 1.157a1.618 1.618 0 0 0-.552 1.27c.02.818.765 1.563 1.583 1.583a1.63 1.63 0 0 0 1.676-1.63c0-.492-.22-.93-.566-1.23a1.483 1.483 0 0 1-.538-1.123v-.5c0-.465.186-.924.538-1.23.094-.08.18-.172.253-.272.2-.266.499-.439.831-.439h.472c.48 0 .938.206 1.224.585.34.452.878.752 1.49.752a1.862 1.862 0 0 0 1.848-2.068 1.898 1.898 0 0 0-1.65-1.636ZM0 13.321a2.183 2.183 0 0 0 2.434 2.168 2.197 2.197 0 0 0 1.921-1.935 2.187 2.187 0 0 0-1.077-2.128 1.194 1.194 0 0 1-.572-1.037v-.06c0-.366.193-.698.492-.911.446-.32.739-.838.739-1.43 0-.053 0-.1-.007-.153-.04-.479.106-.957.445-1.303L6.357 4.55c.3-.299.705-.485 1.124-.479.073 0 .153 0 .233-.013a1.418 1.418 0 0 0 1.203-1.243 1.415 1.415 0 0 0-1.556-1.556 1.418 1.418 0 0 0-1.243 1.203c-.014.08-.014.153-.014.233.007.426-.18.825-.478 1.124L3.644 5.8a1.528 1.528 0 0 1-1.243.453A1.773 1.773 0 0 0 .453 7.796c-.074.664.225 1.27.717 1.622.3.22.499.552.499.924v.053c0 .426-.226.825-.592 1.044A2.179 2.179 0 0 0 0 13.321Z" />
    <path d="M15.979 7.476h-.791c-.453 0-.891-.173-1.184-.512a1.558 1.558 0 0 0-2.347 0 1.416 1.416 0 0 1-1.064.505h-.107c-.498 0-.95-.266-1.23-.678a2.116 2.116 0 0 0-1.795-.917 2.129 2.129 0 0 0-2.055 2.028 2.119 2.119 0 0 0 2.514 2.16 1.539 1.539 0 0 1 1.376.433l1.164 1.164c.352.352.492.85.412 1.35a1.99 1.99 0 0 0 1.643 2.268 1.992 1.992 0 0 0 2.294-2.295 1.99 1.99 0 0 0-2.268-1.643c-.492.074-.997-.06-1.35-.412L9.57 9.305a.469.469 0 0 1-.1-.512v-.007a.451.451 0 0 1 .419-.28h.592c.452 0 .89.174 1.183.513a1.555 1.555 0 0 0 2.341 0c.3-.34.738-.512 1.184-.512h.026c.506 0 .991.226 1.284.638a2.012 2.012 0 0 0 1.715.858c1.004-.027 1.922-.938 1.962-1.942a2.022 2.022 0 0 0-2.334-2.074c-.499.08-1.01-.06-1.37-.42l-.671-.671c-.393-.392-.566-.97-.413-1.503a2.66 2.66 0 0 0 .087-1.03A2.675 2.675 0 0 0 13.173.022a2.665 2.665 0 0 0-2.986 2.986 2.668 2.668 0 0 0 2.34 2.3c.36.04.712.007 1.032-.086.532-.153 1.11.02 1.502.412l1.084 1.084c.14.14.186.352.113.539v.006a.29.29 0 0 1-.279.213Z" />
    <path d="M17.848 4.53c.192.034.379.034.565.007.492-.067.99.126 1.343.479l1.835 1.835c.3.3.446.718.446 1.144V8c0 .4.16.758.419 1.018.306.306.498.711.498 1.143v.286c0 .492-.219.971-.625 1.257a1.977 1.977 0 0 0-.837 1.683c.033.984.917 1.881 1.901 1.921a1.98 1.98 0 0 0 1.244-3.584c-.42-.299-.639-.798-.639-1.316v-.233c0-.42.153-.838.466-1.124.32-.3.505-.738.446-1.223a1.453 1.453 0 0 0-1.224-1.257 1.445 1.445 0 0 0-.24-.014c-.432.014-.85-.186-1.157-.492l-1.788-1.788a1.61 1.61 0 0 1-.479-1.344 1.886 1.886 0 0 0-1.55-2.121 1.882 1.882 0 0 0-2.174 2.175 1.87 1.87 0 0 0 1.55 1.542Z" />
  </g>
</svg>